<?xml version="1.0" encoding="iso-8859-1"?>
<!-- Generator: Adobe Illustrator 19.0.0, SVG Export Plug-In . SVG Version: 6.00 Build 0)  -->
<svg version="1.1" id="Layer_1" xmlns="http://www.w3.org/2000/svg" xmlns:xlink="http://www.w3.org/1999/xlink" x="0px" y="0px"
	 viewBox="0 0 512 512" style="enable-background:new 0 0 512 512;" xml:space="preserve">
<path style="fill:#9ED368;" d="M512,256.006C512,397.402,397.394,512.004,256.004,512C114.606,512.004,0,397.402,0,256.006
	C-0.007,114.61,114.606,0,256.004,0C397.394,0,512,114.614,512,256.006z"/>
<path style="fill:#8BC052;" d="M483.05,374.236c-0.14-0.163-0.268-0.335-0.432-0.48c-0.26-0.293-0.554-0.526-0.86-0.772
	c-0.247-0.305-99.253-99.312-99.558-99.558c-0.247-0.306-0.479-0.599-0.773-0.86c-0.26-0.293-140.339-140.321-140.98-140.778
	c-1.282-1.797-3.281-3.046-5.657-3.046c-3.904,0-7.07,3.166-7.07,7.07v81.91c0,0-114.641-114.641-114.642-114.642L98.389,88.391
	c-2.762-2.762-7.235-2.762-9.997,0c-2.762,2.762-2.762,7.235,0,9.998c0,0,1.63,1.63,1.632,1.632l127.698,127.698h-81.911
	c-3.904,0-7.07,3.166-7.07,7.07c0,2.375,1.249,4.374,3.045,5.657c0.457,0.641,139.506,139.716,140.005,140.122
	c0.246,0.305,0.479,0.599,0.772,0.86c0.26,0.293,100.896,100.93,101.19,101.19c0.146,0.164,0.318,0.293,0.481,0.433
	C420.718,458.798,458.797,420.717,483.05,374.236z"/>
<g>
	<path style="fill:#F4F6F9;" d="M423.607,413.61l-129.33-129.33h81.911c3.904,0,7.07-3.166,7.07-7.07c0-3.904-3.166-7.07-7.07-7.07
		H277.21c-3.904,0-7.07,3.166-7.07,7.07v98.979c0,3.904,3.166,7.07,7.07,7.07c3.904,0,7.07-3.166,7.07-7.07v-81.911l129.33,129.33
		c1.381,1.381,3.189,2.071,4.998,2.071s3.618-0.69,4.998-2.071C426.369,420.846,426.369,416.371,423.607,413.61z"/>
	<path style="fill:#F4F6F9;" d="M234.79,128.741c-3.904,0-7.07,3.166-7.07,7.07v81.911L98.39,88.393
		c-2.762-2.762-7.235-2.762-9.997,0s-2.762,7.235,0,9.997l129.33,129.33h-81.911c-3.904,0-7.07,3.166-7.07,7.07
		s3.166,7.07,7.07,7.07h98.979c3.904,0,7.07-3.166,7.07-7.07V135.81C241.86,131.907,238.694,128.741,234.79,128.741z"/>
</g>
<g>
</g>
<g>
</g>
<g>
</g>
<g>
</g>
<g>
</g>
<g>
</g>
<g>
</g>
<g>
</g>
<g>
</g>
<g>
</g>
<g>
</g>
<g>
</g>
<g>
</g>
<g>
</g>
<g>
</g>
</svg>
